HIERARCHY
ROOT Hips
{
  OFFSET 379.782 92.2786 290.355
  CHANNELS 6 Xposition Yposition Zposition Zrotation Xrotation Yrotation
  JOINT RightUpLeg
  {
    OFFSET -9.318 -1.59997 -0.0255656
    CHANNELS 3 Zrotation Xrotation Yrotation
    JOINT RightLeg
    {
      OFFSET -0.136975 -41.8813 0.0405081
      CHANNELS 3 Zrotation Xrotation Yrotation
      JOINT RightFoot
      {
        OFFSET -1.0807 -41.6587 0.586438
        CHANNELS 3 Zrotation Xrotation Yrotation
        End Site
        {
          OFFSET 0 -7.69 17.5
        }
      }
    }
  }
  JOINT LeftUpLeg
  {
    OFFSET 9.27787 -1.61286 0.0382806
    CHANNELS 3 Zrotation Xrotation Yrotation
    JOINT LeftLeg
    {
      OFFSET -0.0123215 -41.8896 0.00236418
      CHANNELS 3 Zrotation Xrotation Yrotation
      JOINT LeftFoot
      {
        OFFSET -0.652072 -41.729 -0.18326
        CHANNELS 3 Zrotation Xrotation Yrotation
        End Site
        {
          OFFSET 0 -7.69 17.5
        }
      }
    }
  }
  JOINT Spine
  {
    OFFSET -0.0177341 14.309 -0.0767167
    CHANNELS 3 Zrotation Xrotation Yrotation
    JOINT Spine1
    {
      OFFSET -0.00815137 9.72249 -0.0279754
      CHANNELS 3 Zrotation Xrotation Yrotation
      JOINT Spine2
      {
        OFFSET 0.00254358 10.1098 0.019684
        CHANNELS 3 Zrotation Xrotation Yrotation
        JOINT Spine3
        {
          OFFSET -0.0144201 9.70891 0.00890261
          CHANNELS 3 Zrotation Xrotation Yrotation
          JOINT Neck
          {
            OFFSET 0.0322479 10.3931 -0.0281125
            CHANNELS 3 Zrotation Xrotation Yrotation
            JOINT Head
            {
              OFFSET -0.0385169 9.45764 -0.0313976
              CHANNELS 3 Zrotation Xrotation Yrotation
              End Site
              {
                OFFSET 0 15.95 0
              }
            }
          }
          JOINT RightShoulder
          {
            OFFSET -3.21135 6.91228 0.0181834
            CHANNELS 3 Zrotation Xrotation Yrotation
            JOINT RightArm
            {
              OFFSET -12.78 -0.037075 0.00204326
              CHANNELS 3 Zrotation Xrotation Yrotation
              JOINT RightForeArm
              {
                OFFSET -26.5744 -0.042257 0.00438508
                CHANNELS 3 Zrotation Xrotation Yrotation
                JOINT RightHand
                {
                  OFFSET -25.9747 -0.00246067 0.0950584
                  CHANNELS 3 Zrotation Xrotation Yrotation
                  JOINT RightHandThumb1
                  {
                    OFFSET -2.48905 0.190105 3.12053
                    CHANNELS 3 Zrotation Xrotation Yrotation
                    JOINT RightHandThumb2
                    {
                      OFFSET -3.68274 0 0
                      CHANNELS 3 Zrotation Xrotation Yrotation
                      JOINT RightHandThumb3
                      {
                        OFFSET -2.55832 0 0
                        CHANNELS 3 Zrotation Xrotation Yrotation
                        End Site
                        {
                          OFFSET -2.194 0 0
                        }
                      }
                    }
                  }
                  JOINT RightInHandIndex
                  {
                    OFFSET -3.22368 0.508421 1.97842
                    CHANNELS 3 Zrotation Xrotation Yrotation
                    JOINT RightHandIndex1
                    {
                      OFFSET -5.21684 -0.091368 0.999158
                      CHANNELS 3 Zrotation Xrotation Yrotation
                      JOINT RightHandIndex2
                      {
                        OFFSET -3.61937 0 0
                        CHANNELS 3 Zrotation Xrotation Yrotation
                        JOINT RightHandIndex3
                        {
                          OFFSET -2.0521 0 0
                          CHANNELS 3 Zrotation Xrotation Yrotation
                          End Site
                          {
                            OFFSET -1.805 0 0
                          }
                        }
                      }
                    }
                  }
                  JOINT RightInHandMiddle
                  {
                    OFFSET -3.38211 0.517263 0.756737
                    CHANNELS 3 Zrotation Xrotation Yrotation
                    JOINT RightHandMiddle1
                    {
                      OFFSET -5.17411 -0.084 0.313895
                      CHANNELS 3 Zrotation Xrotation Yrotation
                      JOINT RightHandMiddle2
                      {
                        OFFSET -3.94947 0 0
                        CHANNELS 3 Zrotation Xrotation Yrotation
                        JOINT RightHandMiddle3
                        {
                          OFFSET -2.47579 0 0
                          CHANNELS 3 Zrotation Xrotation Yrotation
                          End Site
                          {
                            OFFSET -1.975 0 0
                          }
                        }
                      }
                    }
                  }
                  JOINT RightInHandRing
                  {
                    OFFSET -3.36516 0.537895 -0.128947
                    CHANNELS 3 Zrotation Xrotation Yrotation
                    JOINT RightHandRing1
                    {
                      OFFSET -4.63474 -0.022105 -0.478947
                      CHANNELS 3 Zrotation Xrotation Yrotation
                      JOINT RightHandRing2
                      {
                        OFFSET -3.44238 0 0
                        CHANNELS 3 Zrotation Xrotation Yrotation
                        JOINT RightHandRing3
                        {
                          OFFSET -2.3881 0 0
                          CHANNELS 3 Zrotation Xrotation Yrotation
                          End Site
                          {
                            OFFSET -1.857 0 0
                          }
                        }
                      }
                    }
                  }
                  JOINT RightInHandPinky
                  {
                    OFFSET -3.16105 0.469368 -1.20179
                    CHANNELS 3 Zrotation Xrotation Yrotation
                    JOINT RightHandPinky1
                    {
                      OFFSET -4.14105 -0.022105 -1.09053
                      CHANNELS 3 Zrotation Xrotation Yrotation
                      JOINT RightHandPinky2
                      {
                        OFFSET -2.75653 0 0
                        CHANNELS 3 Zrotation Xrotation Yrotation
                        JOINT RightHandPinky3
                        {
                          OFFSET -1.74189 0 0
                          CHANNELS 3 Zrotation Xrotation Yrotation
                          End Site
                          {
                            OFFSET -1.645 0 0
                          }
                        }
                      }
                    }
                  }
                }
              }
            }
          }
          JOINT LeftShoulder
          {
            OFFSET 3.18892 6.92664 -0.0245911
            CHANNELS 3 Zrotation Xrotation Yrotation
            JOINT LeftArm
            {
              OFFSET 12.7909 -0.0167212 -0.0450047
              CHANNELS 3 Zrotation Xrotation Yrotation
              JOINT LeftForeArm
              {
                OFFSET 26.5444 0.0404129 -0.0295549
                CHANNELS 3 Zrotation Xrotation Yrotation
                JOINT LeftHand
                {
                  OFFSET 26.0086 0.150694 -0.0470183
                  CHANNELS 3 Zrotation Xrotation Yrotation
                  JOINT LeftHandThumb1
                  {
                    OFFSET 2.48905 0.190105 3.12053
                    CHANNELS 3 Zrotation Xrotation Yrotation
                    JOINT LeftHandThumb2
                    {
                      OFFSET 3.68274 0 0
                      CHANNELS 3 Zrotation Xrotation Yrotation
                      JOINT LeftHandThumb3
                      {
                        OFFSET 2.55832 0 0
                        CHANNELS 3 Zrotation Xrotation Yrotation
                        End Site
                        {
                          OFFSET 2.194 0 0
                        }
                      }
                    }
                  }
                  JOINT LeftInHandIndex
                  {
                    OFFSET 3.22368 0.508421 1.97842
                    CHANNELS 3 Zrotation Xrotation Yrotation
                    JOINT LeftHandIndex1
                    {
                      OFFSET 5.21684 -0.091368 0.999158
                      CHANNELS 3 Zrotation Xrotation Yrotation
                      JOINT LeftHandIndex2
                      {
                        OFFSET 3.61937 0 0
                        CHANNELS 3 Zrotation Xrotation Yrotation
                        JOINT LeftHandIndex3
                        {
                          OFFSET 2.0521 0 0
                          CHANNELS 3 Zrotation Xrotation Yrotation
                          End Site
                          {
                            OFFSET 1.805 0 0
                          }
                        }
                      }
                    }
                  }
                  JOINT LeftInHandMiddle
                  {
                    OFFSET 3.38211 0.517263 0.756737
                    CHANNELS 3 Zrotation Xrotation Yrotation
                    JOINT LeftHandMiddle1
                    {
                      OFFSET 5.17411 -0.084 0.313895
                      CHANNELS 3 Zrotation Xrotation Yrotation
                      JOINT LeftHandMiddle2
                      {
                        OFFSET 3.94947 0 0
                        CHANNELS 3 Zrotation Xrotation Yrotation
                        JOINT LeftHandMiddle3
                        {
                          OFFSET 2.47579 0 0
                          CHANNELS 3 Zrotation Xrotation Yrotation
                          End Site
                          {
                            OFFSET 1.975 0 0
                          }
                        }
                      }
                    }
                  }
                  JOINT LeftInHandRing
                  {
                    OFFSET 3.36516 0.537895 -0.128947
                    CHANNELS 3 Zrotation Xrotation Yrotation
                    JOINT LeftHandRing1
                    {
                      OFFSET 4.63474 -0.022105 -0.478947
                      CHANNELS 3 Zrotation Xrotation Yrotation
                      JOINT LeftHandRing2
                      {
                        OFFSET 3.44238 0 0
                        CHANNELS 3 Zrotation Xrotation Yrotation
                        JOINT LeftHandRing3
                        {
                          OFFSET 2.3881 0 0
                          CHANNELS 3 Zrotation Xrotation Yrotation
                          End Site
                          {
                            OFFSET 1.857 0 0
                          }
                        }
                      }
                    }
                  }
                  JOINT LeftInHandPinky
                  {
                    OFFSET 3.16105 0.469368 -1.20179
                    CHANNELS 3 Zrotation Xrotation Yrotation
                    JOINT LeftHandPinky1
                    {
                      OFFSET 4.14105 -0.022105 -1.09053
                      CHANNELS 3 Zrotation Xrotation Yrotation
                      JOINT LeftHandPinky2
                      {
                        OFFSET 2.75653 0 0
                        CHANNELS 3 Zrotation Xrotation Yrotation
                        JOINT LeftHandPinky3
                        {
                          OFFSET 1.74189 0 0
                          CHANNELS 3 Zrotation Xrotation Yrotation
                          End Site
                          {
                            OFFSET 1.645 0 0
                          }
                        }
                      }
                    }
                  }
                }
              }
            }
          }
        }
      }
    }
  }
}
MOTION
Frames:	4
Frame Time:	0.00833333
390.024 88.3303 271.929 30.1519 29.1865 -41.1692 -42.0042 -57.6533 -41.0703 3.55292 29.6644 -23.0471 9.03211 -0.382579 27.7231 -13.1611 -69.9516 -38.0431 -3.50272 33.4245 3.47793 -10.0956 -7.00175 15.3482 8.14847 6.9423 -1.27885 2.01781 1.77752 -0.0753827 3.33423 2.93704 -0.0242734 -0.480208 -0.671388 -0.00210632 -0.48144 -0.676054 0.00283617 -8.77524 -12.2848 0.103019 -3.58551 -13.1779 -6.45267 69.0849 21.8995 61.2218 2.16988 -28.564 -4.8194 27.9416 -15.5501 -0.71257 28.184 10.7294 19.1592 1.45333e-14 0 -10 1.52343e-14 3.97569e-15 -10 6.36111e-15 0 3.18055e-15 19.9818 0.871897 2.3964 24 -3.47873e-16 1.90833e-14 20 3.18055e-15 2.22639e-14 6.36111e-15 0 3.18055e-15 20 0 -6.36111e-15 24 1.39149e-15 1.90833e-14 20 -4.77083e-15 1.90833e-14 6.36111e-15 0 3.18055e-15 19.9748 -1.02565 -2.81938 24 1.39149e-15 1.90833e-14 20 3.18055e-15 1.90833e-14 6.36111e-15 0 3.18055e-15 19.7815 -3.00948 -8.30515 24 2.78299e-15 6.36111e-15 20 7.95139e-16 2.22639e-14 2.01881 -12.8899 -29.4642 -47.5023 39.9644 -62.3563 2.62037 -63.5196 -5.73819 -2.25798 3.51119 -8.64449 -28.184 10.7294 -19.1592 3.22962e-15 0 10 3.22962e-15 0 10 7.95139e-16 0 5.56597e-15 -19.9818 0.871897 -2.3964 -24 3.18055e-15 -9.54166e-15 -20 -4.77083e-15 -1.27222e-14 7.95139e-16 0 5.56597e-15 -20 0 -0 -24 3.18055e-15 -6.36111e-15 -20 4.77083e-15 -0 7.95139e-16 0 5.56597e-15 -19.9748 -1.02565 2.81938 -24 0 -3.18055e-15 -20 1.59028e-15 -6.36111e-15 7.95139e-16 0 5.56597e-15 -19.7815 -3.00948 8.30515 -24 1.59028e-15 -9.54166e-15 -20 -1.59028e-15 -0 
390.041 88.3241 271.933 30.1998 29.1504 -41.2633 -42.0029 -57.6963 -41.0414 3.52806 29.6538 -23.018 9.02685 -0.348809 27.7441 -13.0804 -69.9695 -37.937 -3.52769 33.468 3.49723 -10.0865 -7.04084 15.3834 8.13821 6.9416 -1.25496 2.01681 1.77652 -0.0696106 3.33261 2.93441 -0.0147656 -0.482765 -0.671395 0.000166193 -0.484013 -0.6763 0.00513487 -8.81723 -12.2985 0.141906 -3.55781 -13.137 -6.45488 69.0828 21.8451 61.1186 2.34094 -28.6549 -4.50119 27.859 -15.4778 -0.858735 28.184 10.7294 19.1592 -9.47855e-15 1.19271e-15 -10 -7.16026e-15 -3.97569e-15 -10 0 0 -6.36111e-15 19.9818 0.871897 2.3964 24 2.18663e-15 -3.18055e-15 20 -1.59028e-15 -0 0 0 -6.36111e-15 20 -1.59028e-15 3.18055e-15 24 3.97569e-16 -6.36111e-15 20 -1.59028e-15 -2.54444e-14 0 0 -6.36111e-15 19.9748 -1.02565 -2.81938 24 5.96354e-16 9.54166e-15 20 0 -3.18055e-15 0 0 -6.36111e-15 19.7815 -3.00948 -8.30515 24 2.38542e-15 9.54166e-15 20 -7.95139e-16 -6.36111e-15 2.0379 -12.8841 -29.4892 -47.2668 39.9377 -62.6247 2.68024 -63.6883 -5.56501 -2.25788 3.47763 -8.63749 -28.184 10.7294 -19.1592 -3.79044e-15 3.18055e-15 10 -3.79044e-15 3.18055e-15 10 1.59028e-15 -9.54166e-15 1.19271e-15 -19.9818 0.871897 -2.3964 -24 0 1.59028e-14 -20 1.59028e-15 6.36111e-15 1.59028e-15 -9.54166e-15 1.19271e-15 -20 0 3.18055e-15 -24 9.54166e-15 1.59028e-14 -20 -3.18055e-15 6.36111e-15 1.59028e-15 -9.54166e-15 1.19271e-15 -19.9748 -1.02565 2.81938 -24 3.18055e-15 9.54166e-15 -20 -1.59028e-15 9.54166e-15 1.59028e-15 -9.54166e-15 1.19271e-15 -19.7815 -3.00948 8.30515 -24 -4.77083e-15 9.54166e-15 -20 -3.97569e-15 1.27222e-14 
390.06 88.3178 271.933 30.2424 29.1146 -41.3564 -42.0006 -57.7433 -41.0183 3.5048 29.6376 -22.9934 9.02532 -0.305511 27.766 -12.9891 -69.992 -37.8275 -3.55198 33.5141 3.51151 -10.075 -7.0843 15.4163 8.13042 6.9407 -1.2326 2.01577 1.77552 -0.0641895 3.33035 2.93178 -0.00582722 -0.4852 -0.6714 0.00249303 -0.486461 -0.67656 0.00748668 -8.86195 -12.3087 0.185657 -3.51082 -13.0975 -6.46324 68.9999 21.8457 61.0849 2.45185 -28.9038 -4.25102 27.7829 -15.3262 -1.02032 28.184 10.7294 19.1592 -5.40771e-15 5.96354e-15 -10 -4.42382e-15 2.38542e-15 -10 -3.18055e-15 0 -0 19.9818 0.871897 2.3964 24 -1.63997e-15 3.18055e-15 20 0 -0 -3.18055e-15 0 -0 20 0 6.36111e-15 24 -9.93923e-17 6.36111e-15 20 -3.18055e-15 -3.18055e-15 -3.18055e-15 0 -0 19.9748 -1.02565 -2.81938 24 -2.18663e-15 3.18055e-15 20 -1.59028e-15 -3.18055e-15 -3.18055e-15 0 -0 19.7815 -3.00948 -8.30515 24 0 -6.36111e-15 20 3.18055e-15 6.36111e-15 2.06773 -12.8777 -29.5066 -47.1901 39.8869 -62.7398 2.59596 -63.7411 -5.59828 -2.22538 3.45663 -8.6242 -28.184 10.7294 -19.1592 -7.02006e-15 3.18055e-15 10 -3.79044e-15 3.18055e-15 10 7.95139e-16 -3.18055e-15 1.98785e-15 -19.9818 0.871897 -2.3964 -24 0 -3.18055e-15 -20 1.59028e-15 9.54166e-15 7.95139e-16 -3.18055e-15 1.98785e-15 -20 0 -3.18055e-15 -24 3.18055e-15 -6.36111e-15 -20 6.36111e-15 -3.18055e-15 7.95139e-16 -3.18055e-15 1.98785e-15 -19.9748 -1.02565 2.81938 -24 0 -6.36111e-15 -20 1.59028e-15 -1.27222e-14 7.95139e-16 -3.18055e-15 1.98785e-15 -19.7815 -3.00948 8.30515 -24 -7.95139e-15 -3.18055e-15 -20 1.59028e-15 -3.18055e-15 
390.076 88.3118 271.933 30.2841 29.0768 -41.4547 -41.9976 -57.7913 -40.9782 3.48537 29.6218 -22.9889 9.02201 -0.260354 27.8103 -12.8844 -70.004 -37.6988 -3.57445 33.5569 3.52931 -10.0638 -7.12838 15.4444 8.11899 6.93954 -1.21211 2.01324 1.77451 -0.0593479 3.32579 2.92917 0.00208797 -0.486827 -0.671401 0.00490112 -0.488097 -0.676832 0.00991925 -8.88762 -12.3256 0.233191 -3.45989 -13.0413 -6.47613 68.914 21.8027 61.0176 2.65622 -29.1053 -3.881 27.6827 -15.2442 -1.19906 28.184 10.7294 19.1592 -7.86128e-15 -7.95139e-15 -10 -1.40401e-14 -6.36111e-15 -10 -6.36111e-15 -6.36111e-15 -0 19.9818 0.871897 2.3964 24 3.03147e-15 -1.59028e-14 20 0 -6.36111e-15 -6.36111e-15 -6.36111e-15 -0 20 -6.36111e-15 9.54166e-15 24 -2.38542e-15 6.36111e-15 20 -4.77083e-15 -1.27222e-14 -6.36111e-15 -6.36111e-15 -0 19.9748 -1.02565 -2.81938 24 -2.38542e-15 1.59028e-14 20 0 -6.36111e-15 -6.36111e-15 -6.36111e-15 -0 19.7815 -3.00948 -8.30515 24 4.77083e-15 -9.54166e-15 20 -3.18055e-15 -1.59028e-14 2.09632 -12.8643 -29.5341 -47.157 39.8353 -62.8061 2.58164 -63.7409 -5.59109 -2.19086 3.44514 -8.62108 -28.184 10.7294 -19.1592 1.54717e-15 9.54166e-15 10 -6.45924e-15 0 10 -1.98785e-15 -3.18055e-15 -1.98785e-15 -19.9818 0.871897 -2.3964 -24 -3.18055e-15 -3.18055e-15 -20 -3.18055e-15 3.18055e-15 -1.98785e-15 -3.18055e-15 -1.98785e-15 -20 3.18055e-15 -1.59028e-15 -24 -6.36111e-15 3.18055e-15 -20 -3.18055e-15 6.36111e-15 -1.98785e-15 -3.18055e-15 -1.98785e-15 -19.9748 -1.02565 2.81938 -24 -3.18055e-15 9.54166e-15 -20 3.18055e-15 3.18055e-15 -1.98785e-15 -3.18055e-15 -1.98785e-15 -19.7815 -3.00948 8.30515 -24 -7.95139e-15 -3.18055e-15 -20 -3.18055e-15 3.18055e-15 
